      
<svg xmlns="http://www.w3.org/2000/svg" viewBox="0 0 24 24" fill="none" stroke="white" stroke-width="1.5" stroke-linecap="round" stroke-linejoin="round">
  <path d="M7.5 10.5C7.5 9.11929 8.61929 8 10 8H14C15.3807 8 16.5 9.11929 16.5 10.5V17.5C16.5 18.8807 15.3807 20 14 20H10C8.61929 20 7.5 18.8807 7.5 17.5V10.5Z" />
  <path d="M4.5 6.5C4.5 4.01472 6.51472 2 9 2H15C17.4853 2 19.5 4.01472 19.5 6.5" />
  <path d="M2.5 10C2.5 6.68629 5.18629 4 8.5 4H15.5C18.8137 4 21.5 6.68629 21.5 10" />
</svg>

    